<svg width="461" height="58" viewBox="0 0 461 58" fill="none" xmlns="http://www.w3.org/2000/svg">
<g filter="url(#filter0_d_276_170)">
<path d="M3.00916 20.6653C3.0254 9.61958 11.9929 0.678454 23.0386 0.694702L438.038 1.30514C449.084 1.32139 458.025 10.2889 458.009 21.3345L457.991 33.3345C457.975 44.3802 449.007 53.3213 437.962 53.3051L22.9621 52.6946C11.9164 52.6784 2.97526 43.7109 2.9915 32.6652L3.00916 20.6653Z" fill="#729AD0" fill-opacity="0.5" shape-rendering="crispEdges"/>
<path d="M3.50915 20.666C3.525 9.89645 12.2683 1.17886 23.0378 1.1947L438.037 1.80514C448.807 1.82098 457.525 10.5643 457.509 21.3338L457.491 33.3338C457.475 44.1033 448.732 52.8209 437.962 52.8051L22.9628 52.1946C12.1933 52.1788 3.47566 43.4355 3.4915 32.666L3.50915 20.666Z" stroke="white" stroke-opacity="0.5" shape-rendering="crispEdges"/>
</g>
<defs>
<filter id="filter0_d_276_170" x="0.991699" y="0.69458" width="459.017" height="56.6106" filterUnits="userSpaceOnUse" color-interpolation-filters="sRGB">
<feFlood flood-opacity="0" result="BackgroundImageFix"/>
<feColorMatrix in="SourceAlpha" type="matrix" values="0 0 0 0 0 0 0 0 0 0 0 0 0 0 0 0 0 0 127 0" result="hardAlpha"/>
<feOffset dy="2"/>
<feGaussianBlur stdDeviation="1"/>
<feComposite in2="hardAlpha" operator="out"/>
<feColorMatrix type="matrix" values="0 0 0 0 0 0 0 0 0 0 0 0 0 0 0 0 0 0 0.25 0"/>
<feBlend mode="normal" in2="BackgroundImageFix" result="effect1_dropShadow_276_170"/>
<feBlend mode="normal" in="SourceGraphic" in2="effect1_dropShadow_276_170" result="shape"/>
</filter>
</defs>
</svg>
